# xmcd
#
# Track frame offsets: 
#        150
#        16945
#        34252
#        51532
#        67389
#        87758
#        109318
#        134086
#        159516
#        178764
#        197676
#        216628
#        233650
#        250170
#
# Disc length: 3910 seconds
#
# Revision: 0
# Processed by: cddbd v1.5.2PL0 Copyright (c) Steve Scherf et al.
# Submitted via: ExactAudioCopy v0.95b1
#
DISCID=d60f440e
DTITLE=Cassandra Steen - Mir so nah
DYEAR=2010
DGENRE=
TTITLE0=gebt alles
TTITLE1=lange genug zeit
TTITLE2=soo
TTITLE3=tanz
TTITLE4=leben
TTITLE5=symphonien
TTITLE6=ich lasse jetzt los
TTITLE7=wenn liebe ihren willen kriegt
TTITLE8=prophetin
TTITLE9=ich fühl es nicht
TTITLE10=gib mir mehr
TTITLE11=camouflage
TTITLE12=der erste winter
TTITLE13=komm näher
EXTD=
EXTT0=
EXTT1=
EXTT2=
EXTT3=
EXTT4=
EXTT5=
EXTT6=
EXTT7=
EXTT8=
EXTT9=
EXTT10=
EXTT11=
EXTT12=
EXTT13=
PLAYORDER=
